<svg width="1947" height="399" viewBox="0 0 1947 399" fill="none" xmlns="http://www.w3.org/2000/svg">
  <mask id="mask0_2060_283" mask-type="alpha" maskUnits="userSpaceOnUse" x="0" y="0" width="1947" height="399">
    <rect width="1947" height="399" fill="#D9D9D9"/>
  </mask>
  <g mask="url(#mask0_2060_283)">
    <path d="M3618.5 -3039.86C3863.69 -2857.91 3928.22 -2518.22 3798.54 -2092.05C3668.86 -1665.89 3355.05 -1186.39 2922.96 -754.162C2490.87 -321.934 1974.08 29.4211 1481.04 226.178C987.992 422.934 557.018 449.798 278.547 301.132C0.0752145 152.467 -104.248 -160.173 -12.5329 -571.184C79.1823 -982.195 359.807 -1459.63 770.457 -1903.31C1181.11 -2346.98 1689.86 -2722.41 2189.97 -2950.82C2690.07 -3179.22 3142.65 -3242.85 3452.75 -3128.35L1909.5 -1394L3618.5 -3039.86Z" fill="#01473E"/>
    <path d="M1052.71 -313.22L1675.31 -97.4613L1362.3 268.441L1052.71 -313.22Z" fill="#005045" fill-opacity="0.46"/>
    <g style="mix-blend-mode:saturation">
      <path d="M1447 -8.47388L1545.73 157.276H1348.27L1447 -8.47388Z" fill="#21006E"/>
    </g>
    <path d="M770.224 -80.8455L1078.21 162.289L688.107 302.853L770.224 -80.8455Z" fill="#005045" fill-opacity="0.46"/>
    <ellipse cx="370.5" cy="108.5" rx="134.5" ry="122.5" fill="#005045" fill-opacity="0.46"/>
  </g>
</svg>
