<svg 
  width="1947" 
  height="290" 
  viewBox="0 0 1947 290" 
  fill="none" 
  xmlns="http://www.w3.org/2000/svg"
>
  <mask 
    id="mask0_2146_127" 
    style="mask-type:alpha" 
    maskUnits="userSpaceOnUse" 
    x="0" 
    y="0" 
    width="1947" 
    height="290"
  >
    <rect width="1947" height="290" fill="#D9D9D9" />
  </mask>
  <g mask="url(#mask0_2146_127)">
    <path 
      d="M4087.94 -3044.41C4369.65 -2868.2 4443.79 -2539.23 4294.8 -2126.52C4145.81 -1713.81 3785.27 -1249.44 3288.85 -830.858C2792.42 -412.273 2198.69 -72.008 1632.24 118.538C1065.79 309.084 570.651 335.1 250.719 191.127C-69.2137 47.1536 -189.069 -255.618 -83.699 -653.656C21.6714 -1051.69 344.077 -1514.06 815.868 -1943.73C1287.66 -2373.4 1872.16 -2736.98 2446.72 -2958.18C3021.29 -3179.37 3541.25 -3240.99 3897.52 -3130.1L2124.5 -1450.5L4087.94 -3044.41Z" 
      fill="#01473E"
    />
    <path 
      d="M1086.28 -352.46L1594.61 -175.594L1339.75 122.343L1086.28 -352.46Z" 
      fill="#005045" 
      fill-opacity="0.46"
    />
    <path 
      d="M840.406 -106.134L1056.9 73.6856L788.363 170.448L840.406 -106.134Z" 
      fill="#005045" 
      fill-opacity="0.46"
    />
    <ellipse 
      cx="302" 
      cy="45" 
      rx="66" 
      ry="59" 
      fill="#005045" 
      fill-opacity="0.46"
    />
  </g>
</svg>
